<?xml version="1.0" encoding="utf-8"?>
<!-- Generator: Adobe Illustrator 16.0.0, SVG Export Plug-In . SVG Version: 6.00 Build 0)  -->
<!DOCTYPE svg PUBLIC "-//W3C//DTD SVG 1.1//EN" "http://www.w3.org/Graphics/SVG/1.1/DTD/svg11.dtd">
<svg version="1.1" id="Layer_1" xmlns="http://www.w3.org/2000/svg" xmlns:xlink="http://www.w3.org/1999/xlink" x="0px" y="0px"
	 width="576px" height="635.277px" viewBox="0 0 576 635.277" enable-background="new 0 0 576 635.277" xml:space="preserve">
<g>
	<g>
		<g>
			<path fill="#FFFFFF" d="M172.125,46.872c0.346,6.251,0.817,11.71,1.431,16.369c0.6,4.656,1.368,7.171,2.312,7.549
				c1.59,0.688,5.002,1.109,10.237,1.261c5.238,0.157,10.708,0.117,16.41-0.112c5.714-0.235,10.846-0.683,15.431-1.335
				c4.578-0.656,7.029-1.484,7.342-2.481c0.676-2.366,0.826-6.186,0.444-11.455c-0.391-5.267-1.014-8.243-1.849-8.928
				c-0.782-0.846-3.369-1.138-7.758-0.892c-4.399,0.25-9.319,0.408-14.775,0.467c0-0.369,0-0.825,0-1.354c0-0.527,0-0.998,0-1.398
				c1.991-0.066,3.803-0.166,5.439-0.307c1.639-0.144,2.768-0.31,3.389-0.493c0.881-0.121,1.423-1.043,1.646-2.759
				c0.213-1.713,0.222-3.576,0.017-5.584c-0.203-2.015-0.568-3.869-1.074-5.567c-0.516-1.694-1.031-2.625-1.564-2.782
				c-2.209-0.47-5.078-0.73-8.607-0.791c-0.027-0.375-0.063-0.811-0.088-1.309c-0.031-0.501-0.049-0.94-0.049-1.31
				c5.394-0.192,10.112-0.416,14.148-0.679c4.034-0.267,6.22-0.96,6.566-2.085c0.685-2.393,0.969-5.954,0.862-10.679
				c-0.116-4.73-0.585-7.429-1.423-8.114c-0.693-0.685-3.35-1.164-7.998-1.423c-4.639-0.267-9.691-0.362-15.148-0.284
				c-5.452,0.081-10.53,0.29-15.245,0.633c-4.701,0.338-7.448,0.748-8.224,1.212c-0.782,0.467-1.36,1.636-1.729,3.487
				c-0.373,1.854-0.561,3.905-0.561,6.146c-0.187,4.085-0.248,9.377-0.187,15.876C171.583,34.245,171.778,40.625,172.125,46.872z"/>
			<path fill="#FFFFFF" d="M231.588,28.03c2.791,6.031,5.813,12.165,9.074,18.397c3.261,6.237,6.362,11.816,9.331,16.738
				c2.96,4.925,5.075,7.667,6.354,8.231c0.569,0.25,1.849,0.447,3.865,0.591c2.009,0.134,4.16,0.206,6.444,0.206
				c2.292,0,4.434-0.063,6.434-0.191c1.992-0.121,3.271-0.324,3.831-0.605c1.278-0.593,3.387-3.475,6.318-8.65
				c2.925-5.177,5.946-10.959,9.065-17.346c3.119-6.39,5.98-12.556,8.611-18.498c2.622-5.937,4.258-9.965,4.906-12.082
				c0.532-1.777-0.392-3.697-2.738-5.75c-2.355-2.061-5.126-3.82-8.316-5.287c-3.201-1.458-6.311-2.438-9.333-2.922
				c-3.029-0.478-4.924-0.051-5.706,1.287c-1.9,3.243-4.07,7.513-6.496,12.813c-2.435,5.3-4.799,10.595-7.109,15.898
				c-2.311-4.739-4.649-9.61-7.012-14.609c-2.373-5.011-4.854-9.705-7.439-14.103c-0.81-1.338-2.72-1.765-5.724-1.287
				c-3.012,0.484-6.097,1.464-9.234,2.922c-3.153,1.467-5.873,3.227-8.166,5.287c-2.292,2.054-3.138,3.974-2.551,5.75
				C226.94,17.592,228.798,21.999,231.588,28.03z"/>
			<path fill="#FFFFFF" d="M311.885,41.187c0.684,7.43,1.52,14.111,2.479,20.068c0.969,5.951,1.99,9.157,3.083,9.627
				c2.436,1.029,6.586,1.424,12.441,1.198c5.856-0.235,9.119-0.979,9.768-2.226c0.685-0.937,1.315-4.017,1.875-9.251
				c0.561-5.241,0.979-11.275,1.252-18.097c0.285-6.828,0.41-13.747,0.365-20.764c-0.053-7.014-0.329-12.767-0.817-17.254
				c-0.195-1.59-1.919-2.753-5.172-3.504c-3.254-0.751-6.835-1.071-10.755-0.962c-3.909,0.114-7.518,0.659-10.806,1.639
				c-3.279,0.982-5.04,2.426-5.252,4.327c-0.285,2.303-0.258,6.894,0.045,13.77C310.693,26.626,311.201,33.771,311.885,41.187z"/>
			<path fill="#FFFFFF" d="M350.774,58.539c0.588,6.14,1.404,9.773,2.472,10.896c1.049,1.12,3.839,1.871,8.363,2.243
				c4.515,0.373,9.429,0.53,14.726,0.467c5.305-0.063,10.325-0.271,15.081-0.63c4.755-0.361,7.919-0.739,9.526-1.149
				c1.049-0.247,1.76-1.785,2.144-4.602c0.372-2.822,0.453-5.908,0.256-9.257c-0.213-3.353-0.656-6.473-1.359-9.355
				c-0.702-2.883-1.617-4.51-2.736-4.888c-0.781-0.243-2.222-0.301-4.346-0.16c-2.126,0.14-4.329,0.272-6.622,0.401
				c-2.283,0.12-4.364,0.141-6.212,0.063c-1.856-0.072-2.904-0.476-3.11-1.189c-0.16-0.436-0.274-2.395-0.355-5.868
				c-0.07-3.473-0.151-7.363-0.213-11.665c-0.053-4.3-0.124-8.452-0.205-12.44c-0.07-3.988-0.187-6.716-0.347-8.18
				c-0.125-0.9-1.635-1.604-4.514-2.103c-2.889-0.501-6.045-0.739-9.475-0.728c-3.438,0.017-6.594,0.321-9.492,0.911
				c-2.896,0.596-4.406,1.527-4.531,2.808c-0.249,2.148-0.392,6.544-0.443,13.186c-0.055,6.635,0.033,13.638,0.239,20.99
				C349.824,45.651,350.206,52.401,350.774,58.539z"/>
			<path fill="#FFFFFF" d="M145.081,107.831c0.387,2.521,0.866,4.347,1.439,5.481c0.33,0.715,2.098,1.263,5.297,1.63
				c3.213,0.378,7.031,0.612,11.465,0.697c0.507,8.445,1.254,16.794,2.222,25.058c0.973,8.248,2.08,12.64,3.306,13.175
				c1.17,0.51,2.89,0.855,5.168,1.033c2.275,0.178,4.573,0.222,6.893,0.135c2.323-0.093,4.408-0.313,6.275-0.673
				c1.852-0.355,2.949-0.839,3.278-1.43c0.871-1.14,1.573-5.604,2.115-13.409c0.534-7.805,0.845-15.915,0.938-24.333
				c3.142-0.124,5.98-0.262,8.495-0.43c2.511-0.159,4.341-0.335,5.483-0.513c1.222-0.089,2.262-1.537,3.114-4.344
				c0.854-2.808,1.369-5.876,1.548-9.22c0.177-3.341-0.036-6.418-0.667-9.226c-0.632-2.802-1.806-4.269-3.503-4.384
				c-4.313-0.269-9.828-0.441-16.537-0.516c-6.711-0.074-13.316-0.037-19.818,0.132c-6.497,0.164-12.252,0.458-17.25,0.877
				c-5.013,0.415-7.94,0.968-8.808,1.656c-0.604,0.33-0.983,1.559-1.151,3.688c-0.164,2.138-0.187,4.524-0.066,7.169
				C144.438,102.729,144.7,105.306,145.081,107.831z"/>
			<path fill="#FFFFFF" d="M282.698,125.714c1.717-10.478-0.514-19.436-6.674-26.866c-6.148-7.429-14.771-11.621-25.854-12.578
				c-9.197-0.805-17.267,1.71-24.198,7.547c-6.933,5.833-11.101,13.046-12.513,21.644c-1.503,9.252,0.533,17.687,6.104,25.3
				c5.581,7.604,13.215,12.22,22.92,13.83c10.069,1.674,18.896-0.375,26.493-6.131C276.568,142.696,281.144,135.115,282.698,125.714
				z M256.909,121.911c-0.33,1.939-1.182,3.609-2.561,5.01c-1.378,1.407-3.101,2.211-5.163,2.418
				c-2.995,0.357-5.52-0.529-7.554-2.66c-2.045-2.137-2.818-4.592-2.338-7.365c0.365-2.299,1.493-4.202,3.413-5.711
				c1.919-1.509,4.133-2.047,6.648-1.632c2.674,0.447,4.7,1.573,6.095,3.378C256.837,117.156,257.325,119.342,256.909,121.911z"/>
			<path fill="#FFFFFF" d="M293.007,87.168c-2.408,0.421-3.82,0.988-4.273,1.702c-0.623,0.985-1.076,4.69-1.351,11.123
				c-0.259,6.433-0.383,13.418-0.357,20.952c0.027,7.537,0.258,14.562,0.676,21.064c0.417,6.506,1.032,10.328,1.841,11.462
				c0.24,0.358,1.253,0.678,3.039,0.962c1.776,0.287,3.796,0.472,6.044,0.562c2.248,0.087,4.46,0.1,6.646,0.044
				c2.187-0.06,3.83-0.254,4.95-0.582c0.827-0.267,1.609-2.853,2.329-7.748c0.72-4.893,1.253-9.725,1.616-14.502
				c0.57,0.592,1.601,1.669,3.085,3.218c1.484,1.56,3.066,3.142,4.755,4.77c1.696,1.629,3.332,3.063,4.905,4.321
				c1.573,1.25,2.746,1.882,3.52,1.882c0.782,0,1.99-0.66,3.626-1.972c1.626-1.311,3.332-2.822,5.093-4.524
				c1.777-1.698,3.43-3.355,4.967-4.97c1.546-1.609,2.613-2.725,3.208-3.358c0.269,5.109,0.782,10.154,1.539,15.136
				c0.746,4.985,1.571,7.566,2.469,7.748c2.214,0.447,6.07,0.568,11.555,0.378c5.481-0.192,8.531-0.645,9.162-1.365
				c0.8-1.167,1.388-4.93,1.742-11.306c0.364-6.372,0.551-13.286,0.551-20.751c0-7.461-0.169-14.405-0.497-20.839
				c-0.33-6.431-0.782-10.305-1.352-11.617c-0.355-0.742-1.725-1.327-4.114-1.745c-2.374-0.421-5.021-0.645-7.945-0.676
				c-2.923-0.026-5.733,0.167-8.433,0.587c-2.685,0.419-4.508,1.072-5.44,1.963c-2.124,2.034-4.568,5.046-7.341,9.045
				c-2.763,4-5.634,8.197-8.611,12.586c-2.906-4.389-5.778-8.586-8.603-12.586c-2.826-4-5.298-7.011-7.387-9.045
				c-0.959-0.891-2.764-1.544-5.412-1.963c-2.655-0.421-5.411-0.619-8.291-0.607C298.029,86.526,295.407,86.749,293.007,87.168z"/>
			<path fill="#FFFFFF" d="M388.678,86.987c-4.523,0.33-7.163,0.716-7.91,1.168c-0.746,0.447-1.297,1.556-1.662,3.333
				c-0.354,1.774-0.524,3.737-0.524,5.888c-0.194,3.905-0.247,8.975-0.194,15.197c0.062,6.225,0.259,12.329,0.577,18.312
				c0.339,5.984,0.79,11.208,1.378,15.669c0.586,4.462,1.324,6.877,2.23,7.228c1.528,0.664,4.809,1.063,9.838,1.214
				c5.03,0.152,10.283,0.107,15.775-0.115c5.484-0.221,10.415-0.647,14.823-1.276c4.399-0.624,6.755-1.42,7.048-2.37
				c0.668-2.27,0.809-5.924,0.426-10.97c-0.373-5.043-0.959-7.894-1.769-8.551c-0.755-0.809-3.235-1.094-7.456-0.851
				c-4.221,0.239-8.957,0.386-14.2,0.446c0-0.357,0-0.787,0-1.296c0-0.508,0-0.955,0-1.338c1.918-0.069,3.66-0.161,5.233-0.294
				c1.572-0.14,2.665-0.295,3.253-0.475c0.845-0.115,1.368-0.998,1.581-2.639c0.205-1.64,0.214-3.426,0.02-5.352
				c-0.197-1.92-0.543-3.698-1.032-5.326c-0.497-1.629-0.995-2.515-1.501-2.667c-2.133-0.441-4.888-0.697-8.274-0.758
				c-0.036-0.36-0.062-0.771-0.089-1.255c-0.027-0.476-0.045-0.893-0.045-1.255c5.182-0.178,9.713-0.394,13.598-0.645
				c3.874-0.25,5.98-0.92,6.31-1.996c0.657-2.292,0.934-5.706,0.827-10.227c-0.098-4.521-0.561-7.114-1.37-7.768
				c-0.658-0.659-3.216-1.114-7.687-1.367c-4.453-0.258-9.305-0.343-14.557-0.266C398.081,86.458,393.194,86.663,388.678,86.987z"/>
			<path fill="#FFFFFF" d="M195.125,183.348c1.422-0.496,3.057-0.687,4.9-0.587c0.428,0.065,0.627,0.381,0.596,0.958
				c-0.035,0.573,0.391,0.924,1.262,1.044c0.632,0.1,1.667,0.1,3.107,0c1.439-0.097,2.9-0.313,4.361-0.631
				c1.476-0.318,2.746-0.749,3.821-1.296c1.077-0.537,1.574-1.212,1.494-2.012c-0.081-5.261-1.911-8.897-5.492-10.91
				c-3.582-2.012-7.563-2.912-11.944-2.71c-6.639,0.351-12.14,2.532-16.49,6.536c-4.35,4.001-6.927,9.577-7.72,16.72
				c-0.701,6.557,1.05,12.061,5.271,16.518c4.217,4.461,9.456,6.934,15.713,7.426c3.528,0.248,7.118-0.073,10.768-0.953
				c0.186,0.308,0.372,0.47,0.55,0.493c1.24,0.366,3.318,0.512,6.252,0.43c2.934-0.084,4.568-0.342,4.888-0.773
				c0.347-0.309,0.604-1.344,0.782-3.108c0.169-1.768,0.267-3.8,0.293-6.1c0.009-2.306-0.036-4.64-0.151-7.009
				c-0.105-2.372-0.257-4.33-0.461-5.872c-0.125-0.822-1.032-1.359-2.729-1.615c-1.696-0.258-3.527-0.292-5.482-0.105
				c-1.955,0.183-3.723,0.549-5.303,1.104c-1.59,0.554-2.336,1.221-2.256,2.007c-0.16,1.169-0.342,2.332-0.547,3.494
				c-0.204,1.163-1.187,1.729-2.959,1.707c-2.435-0.12-4.301-0.822-5.6-2.107c-1.298-1.287-2.053-2.746-2.248-4.374
				c-0.209-1.635,0.142-3.242,1.03-4.823C191.725,185.222,193.161,184.068,195.125,183.348z"/>
			<path fill="#FFFFFF" d="M258.562,188.688c-1.476-4.422-2.995-8.514-4.553-12.271c-1.553-3.761-2.896-6.194-4.024-7.304
				c-0.8-0.74-2.195-1.204-4.177-1.402c-1.991-0.193-4.062-0.198-6.212-0.015c-2.15,0.185-4.115,0.519-5.893,0.999
				c-1.777,0.483-2.844,1.025-3.207,1.617c-0.916,1.545-1.983,4.207-3.209,7.986c-1.236,3.775-2.4,7.829-3.494,12.15
				c-1.092,4.324-2.008,8.487-2.735,12.493c-0.729,4.007-1.075,7.006-1.04,8.994c0.026,0.598,0.23,1.104,0.612,1.515
				c0.428,0.532,2.187,0.843,5.28,0.939c3.093,0.091,5.057,0.046,5.892-0.139c0.363-0.086,0.64-0.24,0.827-0.463
				c0.363-0.372,0.923-1.348,1.695-2.931c0.783-1.576,1.468-3.015,2.072-4.313c0.472-1.006,1.475-1.527,3.049-1.566l4.984,0.028
				c0.63,0.083,1.138,0.359,1.529,0.833c0.648,0.795,1.307,2.277,1.99,4.42c0.685,2.146,1.387,3.441,2.124,3.893
				c0.222,0.146,0.463,0.241,0.729,0.283c0.667,0.08,2.328,0.044,4.978-0.11c2.646-0.157,4.861-0.382,6.647-0.692
				c1.058-0.183,1.795-0.517,2.23-0.997c0.418-0.488,0.499-1.344,0.24-2.578c-0.391-1.689-1.173-4.56-2.346-8.627
				C261.37,197.366,260.044,193.121,258.562,188.688z M245.382,192.744c-0.205,1.047-1.468,1.617-3.796,1.713
				c-2.319,0.091-3.635-0.313-3.937-1.218c-0.188-0.535,0.054-1.648,0.711-3.343c0.667-1.696,1.323-2.902,1.99-3.626
				c0.801-0.858,1.866-0.153,3.208,2.117C244.892,190.652,245.504,192.107,245.382,192.744z"/>
			<path fill="#FFFFFF" d="M267.181,205.465c0.275,4.482,0.694,7.107,1.244,7.889c0.161,0.245,0.846,0.467,2.053,0.665
				c1.21,0.196,2.578,0.32,4.098,0.384s3.021,0.072,4.506,0.032c1.475-0.042,2.596-0.175,3.342-0.404
				c0.568-0.184,1.102-1.962,1.59-5.328c0.49-3.368,0.854-6.691,1.094-9.981c0.382,0.411,1.084,1.147,2.089,2.219
				c1.003,1.071,2.071,2.163,3.226,3.279c1.146,1.122,2.249,2.11,3.315,2.973c1.066,0.859,1.866,1.295,2.391,1.295
				s1.342-0.451,2.453-1.357c1.102-0.904,2.258-1.937,3.448-3.109c1.2-1.173,2.328-2.313,3.367-3.42
				c1.049-1.112,1.771-1.879,2.187-2.31c0.169,3.513,0.517,6.982,1.022,10.412c0.515,3.428,1.075,5.208,1.68,5.328
				c1.503,0.308,4.106,0.395,7.819,0.262c3.715-0.133,5.787-0.446,6.215-0.938c0.541-0.8,0.941-3.393,1.19-7.777
				c0.238-4.384,0.364-9.148,0.364-14.277c0-5.138-0.117-9.914-0.339-14.342c-0.223-4.431-0.532-7.091-0.906-8.003
				c-0.248-0.504-1.173-0.905-2.798-1.195c-1.609-0.286-3.405-0.442-5.378-0.46c-1.981-0.021-3.884,0.109-5.714,0.396
				c-1.822,0.295-3.059,0.741-3.681,1.359c-1.439,1.391-3.102,3.469-4.985,6.222c-1.867,2.755-3.813,5.64-5.82,8.658
				c-1.983-3.018-3.919-5.903-5.831-8.658c-1.92-2.753-3.59-4.831-5.013-6.222c-0.647-0.618-1.865-1.063-3.66-1.359
				c-1.805-0.287-3.672-0.427-5.617-0.416c-1.946,0.012-3.741,0.162-5.368,0.452c-1.617,0.281-2.586,0.677-2.888,1.169
				c-0.427,0.677-0.729,3.229-0.916,7.659c-0.177,4.42-0.267,9.23-0.248,14.413C266.738,196.16,266.897,200.989,267.181,205.465z"/>
			<path fill="#FFFFFF" d="M360.702,180.702c0.453-1.581,0.64-3.932,0.57-7.045c-0.073-3.109-0.383-4.89-0.926-5.341
				c-0.454-0.451-2.187-0.767-5.209-0.938c-3.029-0.175-6.309-0.238-9.865-0.191c-3.555,0.052-6.86,0.191-9.926,0.418
				c-3.065,0.224-4.852,0.493-5.359,0.804c-0.506,0.31-0.888,1.07-1.119,2.294c-0.25,1.223-0.373,2.575-0.373,4.054
				c-0.114,2.683-0.151,6.174-0.114,10.454c0.033,4.28,0.167,8.482,0.398,12.601c0.204,4.122,0.524,7.718,0.925,10.787
				c0.391,3.069,0.896,4.724,1.501,4.97c1.032,0.455,3.263,0.73,6.666,0.835c3.413,0.103,6.969,0.077,10.691-0.078
				c3.714-0.157,7.056-0.447,10.042-0.875c2.978-0.435,4.578-0.979,4.781-1.641c0.453-1.557,0.543-4.073,0.285-7.542
				c-0.249-3.473-0.649-5.432-1.19-5.88c-0.517-0.559-2.204-0.754-5.058-0.588c-2.862,0.162-6.07,0.262-9.626,0.305
				c0-0.244,0-0.543,0-0.891c0-0.351,0-0.658,0-0.926c1.308-0.042,2.48-0.105,3.556-0.199c1.058-0.091,1.805-0.201,2.195-0.326
				c0.578-0.082,0.932-0.685,1.065-1.815c0.152-1.128,0.152-2.355,0.019-3.678c-0.133-1.327-0.365-2.545-0.701-3.667
				c-0.33-1.123-0.667-1.737-1.013-1.837c-1.45-0.305-3.307-0.48-5.608-0.525c-0.018-0.242-0.037-0.528-0.054-0.862
				c-0.026-0.327-0.036-0.615-0.036-0.859c3.521-0.122,6.577-0.271,9.208-0.444C359.049,181.895,360.488,181.437,360.702,180.702z"
				/>
			<path fill="#FFFFFF" d="M385.053,200.338c-1.004,0.401-1.876,0.445-2.641,0.135c-0.613-0.243-1.049-0.62-1.271-1.136
				c-0.072-0.141-0.134-0.289-0.15-0.43c-0.179-0.74-0.942-1.312-2.285-1.713c-1.332-0.4-2.853-0.603-4.505-0.603
				c-1.021,0.029-2.081,0.125-3.175,0.315c-1.118,0.183-2.122,0.49-3.046,0.921c-2.063,0.944-2.916,2.285-2.543,4.004
				c0.846,3.657,2.969,6.685,6.354,9.09c3.938,2.836,8.612,3.976,14.023,3.434c5.404-0.542,9.696-2.68,12.861-6.393
				c2.674-3.143,3.767-6.699,3.278-10.676c-0.497-3.973-2.417-7.193-5.75-9.657c-2.692-1.992-6.381-3.395-11.038-4.22
				c-0.391-0.062-0.763-0.127-1.138-0.197c-0.363-0.075-0.692-0.139-1.004-0.203c-2.861-0.599-3.502-1.438-1.938-2.531
				c1.565-1.084,2.836-1.23,3.855-0.429c0.41,0.332,0.615,0.679,0.634,1.049c0,0.369,0.23,0.707,0.647,1.018
				c0.348,0.267,0.729,0.376,1.156,0.335c0.692-0.018,1.724-0.15,3.102-0.398c1.376-0.248,2.727-0.617,4.062-1.11
				c1.314-0.494,2.408-1.11,3.295-1.867c0.882-0.747,1.175-1.643,0.862-2.691c-0.789-2.71-2.221-4.887-4.299-6.516
				c-2.08-1.634-4.428-2.723-7.021-3.265c-2.597-0.544-5.279-0.544-8.025,0c-2.764,0.542-5.227,1.63-7.377,3.248
				c-3.67,2.777-5.714,6.305-6.123,10.598c-0.275,3.187,0.009,5.743,0.871,7.675c0.871,1.932,2.053,3.45,3.572,4.559
				c2.114,1.58,4.345,2.549,6.701,2.91c2.355,0.36,4.719,0.886,7.101,1.586c0.986,0.287,1.592,0.654,1.821,1.109
				C386.35,199.255,386.057,199.936,385.053,200.338z"/>
			<path fill="#E2B04D" d="M260.162,457.306L5.722,417.576c-2.706-0.42-5.243,1.426-5.661,4.13
				c-0.427,2.709,1.427,5.243,4.133,5.667l256.803,40.104c0.018-0.566,0.044-1.12,0.071-1.655
				C261.184,463.868,260.837,460.924,260.162,457.306z"/>
			<path fill="#E2B04D" d="M575.938,421.706c-0.418-2.704-2.968-4.55-5.66-4.13L314.95,457.443
				c-0.524,2.839-0.843,5.284-0.896,7.179c-0.035,0.982-0.08,1.989-0.134,3.02l257.887-40.269
				C574.516,426.949,576.365,424.415,575.938,421.706z"/>
			<path fill="#FFFFFF" d="M83.296,365.378l-2.558,2.008c8.155-0.633,28.324-1.598,53.039,1.564c0,0-35.188,0.943-63.446,6.633
				l-6.595,5.184c10.235-1.217,25.601-2.398,43.49-1.662c0,0-27.902,3.16-53.577,9.603l-29.842,23.494l234.122,35.171
				c-3.68-14.713-9.785-33.79-13.73-45.731C212.392,377.357,161.07,355.404,83.296,365.378z"/>
			<path fill="#FFFFFF" d="M552.184,412.202l-32.199-25.354c-26.126-6.726-55.241-10.023-55.241-10.023
				c18.689-0.773,34.624,0.554,44.818,1.828l-6.31-4.969c-29.64-6.453-58.887-6.238-58.887-6.238
				c14.032-4.248,36.817-2.506,49.688-1.006l-1.351-1.061c-76.848-15.45-128.384,6.988-160.529,32.872
				c-4.337,12.84-11.101,33.551-15.02,49.263L552.184,412.202z"/>
			<path fill="#FFFFFF" d="M258.171,424.71c3.322,10.195,8.166,31.751,9.027,51.433c0.871,19.69,11.482,45.239,16.034,43.775
				c4.541-1.472-4.552-23.454,4.327-23.454s-0.222,21.982,4.328,23.454c4.551,1.464,15.161-24.085,16.032-43.775
				c0.863-19.682,5.706-41.237,9.021-51.433c3.323-10.192,10.975-26.015,10.823-33.976c-0.017-1.28-0.062-2.631-0.079-4.02
				c-0.116-7.237,0.15-15.599,4.656-21.485c5.367-7.011,7.633-14.204,7.633-14.204c-5.056,7.472-10.469,3.216-5.917-9.839
				c2.825-8.129,6.185-9.965,8.221-10.775c2.23-0.682,0.79,9.168,0.79,9.168c1.689-5.434,1.369-8.861,1.041-10.41
				c0-0.084,0-0.166-0.028-0.273c-0.035-0.211-0.123-0.445-0.258-0.698v-0.005v0.005c-1.331-2.565-6.957-6.99-6.664-12.81
				c0.32-6.388,13.854-18.211,13.854-18.211c2.275-2.101-10.398-3.144-18.192-11.417c-7.793-8.272-7.41-19.217-7.145-20.366
				c0.274-1.153-3.253,0.315-5.794,1.414c-2.542,1.101-7.252-2.935-11.963-4.874c-4.719-1.937-11.971,3.197-14.184,2.463
				c-2.223-0.73-6.177-0.347-6.177-0.347s-3.955-0.383-6.177,0.347c-2.222,0.734-9.474-4.399-14.185-2.463
				c-4.71,1.939-9.419,5.975-11.971,4.874c-2.541-1.099-6.062-2.567-5.785-1.414c0.267,1.149,0.649,12.094-7.153,20.366
				c-7.796,8.273-20.459,9.316-18.193,11.417c0,0,13.536,11.824,13.865,18.211c0.292,5.819-5.324,10.244-6.675,12.81v-0.005v0.005
				c-0.125,0.253-0.213,0.487-0.258,0.698c-0.017,0.107-0.017,0.189-0.017,0.273c-0.33,1.549-0.649,4.977,1.029,10.41
				c0,0-1.431-9.85,0.799-9.168c2.028,0.811,5.396,2.646,8.223,10.775c4.55,13.055-0.863,17.311-5.92,9.839
				c0,0,2.259,7.193,7.635,14.204c5.207,6.814,4.746,16.939,4.585,24.803c-0.008,0.234-0.008,0.472-0.018,0.702
				C247.204,398.696,254.864,414.518,258.171,424.71z M302.029,423.875c-0.143,8.217,0.115,12.56-2.169,14.221
				c-2.283,1.66-4.816,6.92-4.487,9.008c0.318,2.096,2.266,10.488,1.555,15.805c-0.702,5.331-2.284,10.382-3.538,9.594
				c-1.262-0.797-2.94-10.117-2.782-21.076c0.17-10.954,0.17-20.281-3.047-25.761c-3.218,5.479-3.218,14.807-3.057,25.761
				c0.17,10.959-1.521,20.279-2.773,21.076c-1.254,0.788-2.835-4.263-3.545-9.594c-0.711-5.316,1.242-13.709,1.563-15.805
				c0.328-2.088-2.204-7.348-4.488-9.008c-2.293-1.661-2.026-6.004-2.169-14.221c-0.133-8.221-3.599-6.719,0-22.126
				c2.924-12.507,11.385-18.193,14.469-19.888c3.083,1.694,11.545,7.381,14.469,19.888
				C305.627,417.156,302.163,415.654,302.029,423.875z M292.227,347.712c-11.981,3.029-19.269-5.402-19.269-5.402
				c13.108,7.328,31.079,1.107,31.079,1.107S304.214,344.679,292.227,347.712z M282.033,292.997
				c7.767-3.348,16.228,3.584,16.228,3.584c-12.38-5.63-23.408,0.855-23.408,0.855S274.256,296.343,282.033,292.997z
				 M287.56,296.582c14.638,0,26.483,12.941,26.493,21.891c0,6.6-11.855,21.888-26.493,21.888
				c-14.628,0-26.492-16.351-26.492-21.888C261.068,308.51,272.932,296.582,287.56,296.582z"/>
			<path fill="#E2B04D" d="M59.329,199.514c-13.774-1.441-9.58,4.233,3.982,9.61c13.553,5.386,46.531,37.422,31.425,43.046
				c-21.748,8.094,36.108,13.321,55.065,22.762c18.965,9.445-12.506,14.499-7.598,44.474c6.286,38.377,39.892,35.998,35.293,31.17
				c-4.604-4.826-18.41-11.087-19.16-27.424c-0.751-16.338,18.472-52.229,52.11-43.809c8.37,2.089,10.202,10.958,14.432,11.906
				c8.941,1.996,24.118-15.305,20.219-26.852c-1.601-4.729-25.373-5.18-39.005-3.762c-13.639,1.415-30.982-12.31-34.287-33.765
				c-3.311-21.454-27.59-52.726-38.543-65.526c-10.954-12.801-14.277-61.924-7.618-75.66c6.671-13.733-2.647-13.197-9.971,1.415
				c-7.323,14.619-6.193,59.35-20.364,47.787c-14.167-11.558-16.019-30.088-14.073-36.63c1.938-6.535-11.518,1.636-12.557,21.881
				c-1.039,20.246-7.475,19.073-9.554,20.93c-2.089,1.869,3.973,11.444-2.568,13.16c-6.551,1.712-26.64-9.271-13.535,7.658
				C56.13,178.824,73.108,200.948,59.329,199.514z"/>
			<path fill="#E2B04D" d="M404.197,226.87c-3.316,21.456-20.664,35.18-34.288,33.765c-13.642-1.417-37.414-0.966-39.015,3.762
				c-3.901,11.547,11.287,28.848,20.218,26.852c4.23-0.948,6.062-9.817,14.434-11.906c33.646-8.419,52.871,27.471,52.113,43.809
				c-0.755,16.337-14.557,22.598-19.161,27.424c-4.603,4.828,29.009,7.207,35.292-31.17c4.914-29.975-26.554-35.029-7.589-44.474
				c18.946-9.441,76.812-14.667,55.055-22.762c-15.107-5.624,17.891-37.66,31.435-43.046c13.553-5.377,17.747-11.052,3.981-9.61
				c-13.784,1.435,3.19-20.689,16.298-37.628c13.109-16.929-6.984-5.946-13.535-7.658c-6.522-1.716-0.479-11.292-2.559-13.16
				c-2.089-1.857-8.524-0.684-9.555-20.93c-1.039-20.245-14.494-28.417-12.557-21.881c1.946,6.542,0.088,25.072-14.085,36.63
				c-14.16,11.563-13.031-33.168-20.344-47.787c-7.332-14.612-16.656-15.148-9.989-1.415c6.665,13.735,3.341,62.859-7.607,75.66
				C431.782,174.144,407.502,205.416,404.197,226.87z"/>
			<path fill="#E2B04D" d="M287.56,336.046c9.714,0,17.579-7.867,17.579-17.574c0-9.708-7.865-17.579-17.579-17.579
				s-17.587,7.871-17.587,17.579C269.973,328.179,277.846,336.046,287.56,336.046z M287.56,309.601c0.782,0,1.547,0.116,2.267,0.321
				c-0.321,0.545-0.507,1.178-0.507,1.859c0,2.014,1.635,3.659,3.653,3.659c0.817,0,1.572-0.27,2.186-0.729
				c0.392,0.959,0.613,2,0.613,3.101c0,4.53-3.68,8.208-8.212,8.208s-8.211-3.678-8.211-8.208
				C279.349,313.28,283.028,309.601,287.56,309.601z"/>
		</g>
		<path fill="#FFFFFF" d="M296.51,311.996c0-2.022-1.637-3.662-3.661-3.662c-2.019,0-3.653,1.64-3.653,3.662
			c0,2.02,1.635,3.659,3.653,3.659C294.874,315.655,296.51,314.016,296.51,311.996z"/>
	</g>
	<g>
		<path fill="#FFFFFF" d="M217.612,603.958c-5.65-4.037-7.346-8.476-7.346-14.369c0-10.251,7.911-15.176,17.113-15.176
			c12.107,0,16.063,8.638,16.063,14.611c0,3.632-2.261,5.489-5.327,5.489c-4.359,0-5.005-2.019-5.489-6.136
			c-0.484-4.036-2.745-5.407-5.812-5.407c-3.311,0-5.732,2.098-5.732,5.569c0,2.664,0.485,5.085,5.813,8.637l7.99,5.247
			c5.894,3.875,9.445,8.072,9.445,16.548c0,10.01-5.973,16.305-18.404,16.305c-14.207,0-15.982-12.592-15.982-15.417
			c0-3.874,0.888-7.346,5.488-7.346c3.391,0,5.005,1.856,5.328,7.023c0.242,3.955,2.099,7.185,6.457,7.185
			c4.278,0,6.297-3.068,6.297-6.781c0-3.955-1.534-5.813-5.488-8.638L217.612,603.958z"/>
		<path fill="#FFFFFF" d="M248.206,598.227c0-21.311,8.717-23.813,17.758-23.813s17.759,2.503,17.759,23.813v12.27
			c0,21.875-7.75,24.78-17.759,24.78c-10.01,0-17.758-2.905-17.758-24.78V598.227z M259.506,610.497
			c0,14.207,2.099,16.226,6.457,16.226c4.359,0,6.458-2.019,6.458-16.226v-12.27c0-12.512-2.18-15.256-6.458-15.256
			s-6.457,2.744-6.457,15.256V610.497z"/>
		<path fill="#FFFFFF" d="M287.838,598.227c0-21.311,8.717-23.813,17.759-23.813c9.04,0,17.759,2.503,17.759,23.813v12.27
			c0,21.875-7.75,24.78-17.759,24.78c-10.01,0-17.759-2.905-17.759-24.78V598.227z M299.139,610.497
			c0,14.207,2.099,16.226,6.458,16.226c4.358,0,6.457-2.019,6.457-16.226v-12.27c0-12.512-2.179-15.256-6.457-15.256
			c-4.279,0-6.458,2.744-6.458,15.256V610.497z"/>
		<path fill="#FFFFFF" d="M328.762,580.307c0-3.391,2.18-5.57,5.974-5.57c3.39,0,5.57,0.808,7.507,5.489l12.835,31.804h0.161
			v-31.723c0-3.391,2.503-5.57,5.409-5.57c2.905,0,5.407,2.18,5.407,5.57v48.594c0,3.874-2.502,6.055-5.407,6.055
			c-4.44,0-6.297-0.969-8.073-5.489l-12.834-32.289h-0.161v32.208c0,3.39-2.503,5.57-5.408,5.57c-2.906,0-5.409-2.181-5.409-5.57
			V580.307z"/>
	</g>
</g>
</svg>
